<?xml version="1.0" encoding="utf-8"?>
<!-- Generator: Adobe Illustrator 23.0.0, SVG Export Plug-In . SVG Version: 6.00 Build 0)  -->
<svg version="1.1" id="レイヤー_1" xmlns="http://www.w3.org/2000/svg" xmlns:xlink="http://www.w3.org/1999/xlink" x="0px"
	 y="0px" viewBox="0 0 72.23 70.29" style="enable-background:new 0 0 72.23 70.29;" xml:space="preserve">
<style type="text/css">
  .st0{fill:#ffffff;}
</style>
<g>
	<path class="st0" d="M34.34,1.13C35.09,0.38,36.01,0,37.08,0s1.99,0.38,2.74,1.13L71.1,32.41c0.75,0.75,1.13,1.67,1.13,2.74
		c0,1.07-0.38,1.99-1.13,2.74L39.82,69.17c-0.75,0.75-1.67,1.13-2.74,1.13s-1.99-0.38-2.74-1.13l-3.55-3.55
		c-0.86-0.75-1.26-1.67-1.21-2.74s0.46-1.99,1.21-2.74L50.14,41.6H3.87c-1.07,0-1.99-0.38-2.74-1.13C0.38,39.72,0,38.8,0,37.73
		v-5.16c0-1.07,0.38-1.99,1.13-2.74c0.75-0.75,1.67-1.13,2.74-1.13h46.27L30.79,10.16c-0.75-0.75-1.16-1.67-1.21-2.74
		s0.35-1.99,1.21-2.74L34.34,1.13z"/>
</g>
</svg>
