<?xml version="1.0" encoding="utf-8"?>
<!-- Generator: Adobe Illustrator 23.0.0, SVG Export Plug-In . SVG Version: 6.00 Build 0)  -->
<svg version="1.1" id="レイヤー_1" xmlns="http://www.w3.org/2000/svg" xmlns:xlink="http://www.w3.org/1999/xlink" x="0px"
	 y="0px" viewBox="0 0 647 156.5" style="enable-background:new 0 0 647 156.5;" xml:space="preserve">
<style type="text/css">
	.st0{fill:#FFFFFF;}
</style>
<path class="st0" d="M138.8,26.5c-13.4,0-24.4,11-24.4,24.4v105.6h31.5v-33.6h47.3c13.4,0,24.8-11.1,24.8-24.5V26.5H138.8z
	 M185.9,88.4c0,13.4-11.3,24.2-24.7,24.2h-15.3V60.8c0-13.4,10.8-24.6,24.3-24.6h15.7V88.4z"/>
<path class="st0" d="M24.3,26.5C10.9,26.5,0,37.5,0,50.9v72h31.5v-62c0-13.4,10.7-24.6,24.2-24.6h15.2v86.7H103V26.5H24.3z"/>
<path class="st0" d="M325.7,26.5h-71.6c-13.4,0-24.8,11-24.8,24.4v72h96.4v-10.3h-64.9V60.8c0-13.4,11.2-24.6,24.6-24.6h40.3
	L325.7,26.5L325.7,26.5z"/>
<path class="st0" d="M384,122.9c5.6,0,11-1.7,15.4-4.3V107c-4.2,3.5-9.8,5.5-15.8,5.5h-15.1V60.8c0-13.4,10.7-24.6,24.1-24.6h15.3
	v86.7H440V26.5h-78.7c-13.4,0-24.3,11-24.3,24.4v72"/>
<path class="st0" d="M499.4,26.5v43.3V122c0,13.3-11,23.9-24.2,24.1v10.3h31.5c13.4,0,24.8-11.1,24.8-24.5V26.5H499.4z"/>
<rect x="499.4" class="st0" width="32.1" height="17.5"/>
<path class="st0" d="M567.8,26.5c-13.4,0-24.4,11-24.4,24.4v105.6h31.5v-33.6h47.3c13.4,0,24.8-11.1,24.8-24.5V26.5H567.8z
	 M614.9,88.4c0,13.4-11.3,24.2-24.7,24.2h-15.3V60.8c0-13.4,10.8-24.6,24.3-24.6h15.7V88.4z"/>
<circle class="st0" cx="470" cy="104.5" r="20.4"/>
</svg>
