<?xml version="1.0" encoding="utf-8"?>
<!-- Generator: Adobe Illustrator 23.0.0, SVG Export Plug-In . SVG Version: 6.00 Build 0)  -->
<svg version="1.1" id="logotype-jp" xmlns="http://www.w3.org/2000/svg" xmlns:xlink="http://www.w3.org/1999/xlink" x="0px"
	 y="0px" viewBox="0 0 749.6 81" style="enable-background:new 0 0 749.6 81;" xml:space="preserve">
<style type="text/css">
	.st0{fill:#FFFFFF;}
</style>
<g>
	<path class="st0" d="M16.4,27.5l-3.3,9l-13-5l3.3-8.9L16.4,27.5z M17.4,44.7L8.7,80.4l-8.2-2.6l8.7-35.7L17.4,44.7z M16.4,7.2
		l-3.5,8.9l-12-5.5l3.5-8.8L16.4,7.2z M80.5,78.6H53.4V28.5l-4.6-1.4v12.7H37.7v5.8h11.2v7.5H36.5l-2.2,5.9h14.9v7.5h-5.8l4.9,10.5
		l-6.8,3.1l-6-12l3.6-1.6h-7.6l-5,13.6l-7.2-2.8l4-10.8h-4.8v-7.5h7.5l2.3-5.9h-9.4v-7.5h10.9v-5.8H18.8V18h30.1v7.7L55.7,0l7.7,2
		l-2.7,10h6.6l2.2-12l7,1.2L74.5,12h6.1v8.4h-6.7v10.8h5.2v8.6h-5.2v10.8h5.2v8.5h-5.2v10.9h6.7C80.5,70.1,80.5,78.6,80.5,78.6z
		 M49.2,11.9h-4.4v3.6h-7.4v-3.6h-7.6v3.6h-7.4v-3.6h-4.1V4.2h4.1V0.9h7.4v3.3h7.6V0.9h7.4v3.3h4.4V11.9z M30.1,33.4v-9.3h-3.9v9.3
		H30.1z M41.5,33.4v-9.3h-4.1v9.3H41.5z M66.5,31.3V20.4h-5.1v10.8H66.5z M66.5,50.7V39.8h-5.1v10.8H66.5z M66.5,70.1V59.2h-5.1
		v10.9H66.5z"/>
	<path class="st0" d="M119.9,47.5l-6.8,4l-6.1-10.6v38.8h-9.4V42.9l-4.6,17.3L85.3,58l8.3-31l4.1,1.1V23H87v-9.7h10.7V0.8h9.4v12.6
		h9.8V23h-9.8v11.3l3.7-2.2L119.9,47.5z M136.1,20.9l-12,21.5l-7.2-4.8L128.8,16L136.1,20.9z M164.1,75l-7.4,6l-15.6-20l-15.6,20
		l-7.4-6l17.2-21.5l-9-11.5l7-5.5l7.8,9.8l7.8-9.8l7,5.5l-9,11.5L164.1,75z M165.7,15.5h-46.9V6.1h17.9V0.8H147v5.3h18.6L165.7,15.5
		L165.7,15.5z M165.8,38.2l-7.1,5l-12.6-22.3l7.4-4.9L165.8,38.2z"/>
	<path class="st0" d="M200,16.5h-2.2c-3.9,0-7.1,1.5-9.7,4.4c-2.4,2.7-3.6,5.7-3.6,9v50h-11v-50c0-6.4,2.3-12.1,7-17.1
		c4.6-5,10.4-7.4,17.3-7.4h2.2V16.5L200,16.5z M250.4,11.2c0,2.1-0.6,4.1-1.7,5.9c-1.2,1.8-2.7,3.1-4.6,4c1.2,2.8,1.7,5.8,1.7,8.8
		v49.9h-11V29.9c0-3.3-1.2-6.3-3.6-9c-2.6-2.9-5.8-4.4-9.7-4.4h-2.2V5.4h2.2c2.9,0,5.7,0.5,8.2,1.6c0.9-2,2.2-3.5,3.9-4.7
		c1.8-1.2,3.7-1.8,5.9-1.8c2.9,0,5.5,1.1,7.6,3.2C249.4,5.8,250.4,8.3,250.4,11.2z M244.1,11.2c0-1.2-0.4-2.2-1.3-3.1
		c-0.8-0.9-1.9-1.3-3.2-1.3c-1.2,0-2.2,0.4-3.1,1.3c-0.9,0.9-1.4,1.9-1.4,3.1c0,1.2,0.4,2.3,1.3,3.2c0.8,0.9,1.9,1.3,3.2,1.3
		c1.3,0,2.3-0.4,3.2-1.3C243.7,13.5,244.1,12.4,244.1,11.2z"/>
	<path class="st0" d="M280.4,43.4l-10.7,4.2l-12.6-36.5L267.8,7L280.4,43.4z M331.8,9.2l-4.5,23.3c-2.1,11.6-7,28.7-13.1,35.5
		c-6.9,7.9-16.7,11.8-29.2,11.8h-23.5V68.6h23.7c8.6,0,15.3-2.7,20.2-8c4.3-4.7,8.8-20,10.5-28l5.3-25.1L331.8,9.2z"/>
	<path class="st0" d="M409.9,78.1h-71.1V67.2H399V27.5c0-2.5-0.8-4.6-2.5-6.3c-1.7-1.7-3.6-2.6-5.8-2.6h-52.1V7.7h52.7
		c4.6,0,8.7,1.7,12.5,5.2c4.1,3.8,6.1,8.4,6.1,13.9L409.9,78.1L409.9,78.1z"/>
	<path class="st0" d="M458.1,18.6l-1.6,10.3l-37.3-8.1l1.6-10.2L458.1,18.6z M493.2,40.4c0,11.4-2.9,20.5-8.7,27.3
		c-6.9,8.1-17.4,12.1-31.3,12.1h-33.3V68.6h32.9c10.2,0,17.7-2.6,22.5-7.8c4.3-4.7,6.4-11.5,6.4-20.4V28.8h11.4V40.4z"/>
	<path class="st0" d="M534.8,11.8h-14.7l-6,18.4h19.3v48.4h-26.2V48.8l-7.6-2.9l10.9-34.1h-8.7V2.2h33L534.8,11.8L534.8,11.8z
		 M524.6,69V39.8h-8.9V69H524.6z M580.1,44.3h-5.9v35.3h-9.7V44.3h-11.2L547.5,80l-9.5-1.8l5.5-33.8h-6.1v-9.8h6.5V12h-6.5V2.2h42.6
		V12h-5.9v22.5h5.9L580.1,44.3L580.1,44.3z M564.5,34.6V12h-10.9v22.5H564.5z"/>
	<path class="st0" d="M665.5,25.3h-10.1v-10h-15.2v14.5h21v9h-31.4V15.3h-32.8v10h-10.2V6.1h33.7V0.9h11.5v5.3h33.7L665.5,25.3
		L665.5,25.3z M665.4,78.5h-26.8V54.4h-25.9l-9.9,26.3l-10.4-3.3l8.8-23h-12.4v-9.6H605l3.8-9.9l10,3.3l-2.4,6.6h33.2v23.8h15.8
		L665.4,78.5L665.4,78.5z M619.1,21.9l-16.7,18.6l-7.4-6.3l17-18.3L619.1,21.9z"/>
	<path class="st0" d="M713.3,39.3h-42.7v-9.3h7.3l-1.4-12l9.1-0.9l1.4,12.8h10.8l1.4-12.8l9.1,0.8l-1.4,12h6.4L713.3,39.3
		L713.3,39.3z M711.8,15.2h-39V6h14.2V0.9h10.6V6h14.2L711.8,15.2L711.8,15.2z M711.4,78.6h-38V47.5h38L711.4,78.6L711.4,78.6z
		 M701.6,69.9V56.2h-18.5v13.7H701.6z M749.6,66.6l-5.5,6.7h-11.5V63h6.3l-6.3-29.1l5.8-22.3h-11.6v68h-9.9V2.1h25.8l6.2,6.9
		l-6.8,25.1L749.6,66.6z"/>
</g>
</svg>
