<?xml version="1.0" encoding="utf-8"?>
<!-- Generator: Adobe Illustrator 15.0.2, SVG Export Plug-In . SVG Version: 6.00 Build 0)  -->
<!DOCTYPE svg PUBLIC "-//W3C//DTD SVG 1.1//EN" "http://www.w3.org/Graphics/SVG/1.1/DTD/svg11.dtd">
<svg version="1.1" id="レイヤー_1" xmlns="http://www.w3.org/2000/svg" xmlns:xlink="http://www.w3.org/1999/xlink" x="0px"
	 y="0px" width="440px" height="130px" viewBox="27.878 899.485 440 130" enable-background="new 27.878 899.485 440 130"
	 xml:space="preserve">
<path d="M166.649,899.485c-13.424,0-24.429,10.982-24.429,24.406v105.594h31.516v-33.633h47.303
	c13.423,0,24.821-11.121,24.821-24.543v-71.824H166.649z M213.739,961.396c0,13.424-11.321,24.152-24.744,24.152h-15.259v-51.744
	c0-13.424,10.835-24.622,24.259-24.622h15.744V961.396z"/>
<path d="M52.218,899.485c-13.423,0-24.34,10.982-24.34,24.406v71.961h31.516v-62.048c0-13.425,10.747-24.622,24.17-24.622h15.225
	v86.67h32.123v-96.367H52.218z"/>
<path d="M353.535,899.485h-71.599c-13.422,0-24.767,10.982-24.767,24.406v71.961h96.366v-10.304h-64.851v-51.744
	c0-13.425,11.175-24.622,24.6-24.622h40.251V899.485z"/>
<path d="M411.843,995.853c5.598,0,11.002-1.67,15.428-4.331v-11.514c-4.188,3.523-9.799,5.542-15.767,5.542H396.36v-51.745
	c0-13.426,10.721-24.623,24.146-24.623h15.25v86.67h32.122v-96.367h-78.72c-13.423,0-24.314,10.982-24.314,24.406v71.961"/>
</svg>
